# xmcd
#
# Track frame offsets:
#	150
#	9047
#	28994
#	50983
#	69469
#	86817
#	101609
#	119959
#	142233
#	156710
#	174916
#	195765
#	215924
#	233350
#	266413
#
# Disc length: 3572 seconds
#
# Revision: 2
# Processed by: cddbd v1.5.1PL0 Copyright (c) Steve Scherf et al.
# Submitted via: CDmax 2.0
#
DISCID=dc0df20f
DTITLE=Joy Electric - Hello, Mannequin
DYEAR=2004
DGENRE=Synthpop
TTITLE0=Hello, Mannequin
TTITLE1=Disloyalist Party
TTITLE2=The Works of Unknowns
TTITLE3=The Singing Arc
TTITLE4=Song for All Time
TTITLE5=The Birth of the Telegram, 1814
TTITLE6=Who Are Friends?
TTITLE7=Wolf in the Bend
TTITLE8=From Mount Chorus
TTITLE9=The Phonograph Plays, Part and Parcel
TTITLE10=Nikola Tesla
TTITLE11=Post Calendar
TTITLE12=I Am a Pioneer
TTITLE13=A Page of Life
TTITLE14=(Data Track)
EXTD=
EXTT0=
EXTT1=
EXTT2=
EXTT3=
EXTT4=
EXTT5=
EXTT6=
EXTT7=
EXTT8=
EXTT9=
EXTT10=
EXTT11=
EXTT12=
EXTT13=
EXTT14=
PLAYORDER=
